<?xml version="1.0" encoding="utf-8"?>
<!-- Generator: Adobe Illustrator 24.2.3, SVG Export Plug-In . SVG Version: 6.00 Build 0)  -->
<svg version="1.1" xmlns="http://www.w3.org/2000/svg" xmlns:xlink="http://www.w3.org/1999/xlink" x="0px" y="0px"
	 viewBox="0 0 3000 3000" style="enable-background:new 0 0 3000 3000;" xml:space="preserve">
<g id="Слой_1">
</g>
<g id="Слой_2">
	<g>
		<path d="M2022.32,297.37c-620.16,0-599.08,562.65-1213.22,562.65c-301.05,0-456.11-135.68-460.6-256.62
			c-5.22-140.74,46.24-363.65,635.62-314.96c-1.99-0.59-3.99-1.2-6.05-1.77c-1.41-0.39-2.83-0.75-4.25-1.09
			c-1.77-0.42-3.49-0.81-5.18-1.21c-3.48-0.77-6.97-1.51-10.45-2.33c0,0,0,0,0,0l-155.4-25.2c-2.19-0.28-94.62-5.48-96.83-5.35
			c-92.85,5.76-175.21,23.5-248.91,76.59c-107.6,77.5-141.66,185.32-141.66,283.28c0,197.65,192.67,380.95,568.98,380.95
			c680.36,0,704.45-586.56,1225.26-586.56c228.8,0,364.27,106.79,364.27,215.18c0,117.95-156.54,239.09-517.8,239.09l335.66,19.74
			c2.88,0.17,5.76,0.29,8.64,0.18c24.88-0.95,51.34-11.11,72.35-23.32c90.76-52.78,131.25-157.73,131.25-248.45
			C2503.99,450.38,2362.5,297.37,2022.32,297.37z"/>
	</g>
	<g>
		<path d="M2802.44,2510.25c-201.93,108.53-364.99,148.91-508.56,150.64c-355.09,4.28-592.6-228.52-990.87-286.57
			c-65.96-9.61-118.34-60.34-129.39-126.07c-5.87-34.91-12.46-81.76-13.23-145.42l-7.81-1530.03c-0.03-2.47-0.11-8.19-0.13-10.62
			c-0.67-120.99-49.42-224.36-143.42-264.84c-1.45-0.37-2.76-0.92-3.94-1.62c-5.45-2.22-11.02-4.27-16.76-6.06
			c-3.29-0.89-6.54-1.93-9.92-2.88c-20.36-5.31-42.43-8.04-66.27-7.75l-110.49,1.33c153.43-2.26,191.41,42.95,194.39,290.31
			l18.39,1526.39c2.88,238.71-67.82,273.2-175.5,292.83c-1.18,0.22-1.03,1.95,0.17,1.94l290.26-3.5
			c32.96-0.4,65.85,3.13,97.97,10.52c393.65,90.58,706.13,327.36,1062.96,354.91c129.17,9.97,297.5-106.25,513.32-241.89
			C2804.61,2511.23,2803.47,2509.7,2802.44,2510.25z"/>
	</g>
	<g>
		<g>
			<path d="M-6295.71-6373.26c1.93,0,1.93-3,0-3C-6297.64-6376.26-6297.64-6373.26-6295.71-6373.26L-6295.71-6373.26z"/>
		</g>
	</g>
	<g>
		<path d="M1361.98,1231.64c-1.57,0.38-3.08,0.55-4.51,0.54v22.01c0,0.26-0.03,0.49-0.04,0.74v539.21h46.11v-562.1
			C1389.69,1232,1375.84,1231.84,1361.98,1231.64z"/>
	</g>
	<g>
		<polygon points="1357.48,1184.41 1357.48,1249.62 1658.8,1550.94 1691.4,1518.34 		"/>
	</g>
	<g>
		<polygon points="1357.58,1851.6 1691.4,1517.78 1658.8,1485.18 1357.58,1786.39 		"/>
	</g>
</g>
</svg>
